<svg width="500" height="500" viewBox="0 0 500 500" fill="none" xmlns="http://www.w3.org/2000/svg">
<path d="M148.388 434.683H136V431.459L139.316 429.959V412.637L136 411.137V407.912H148.388V411.137L145.072 412.637V429.959L148.388 431.459V434.683Z" fill="#FFB775"/>
<path d="M172.884 419.648H183.671V433.521C182.248 433.996 180.761 434.371 179.211 434.646C177.687 434.921 175.946 435.058 173.989 435.058C171.296 435.058 168.996 434.533 167.09 433.484C165.21 432.434 163.774 430.884 162.783 428.834C161.818 426.785 161.335 424.26 161.335 421.26C161.335 418.461 161.881 416.036 162.974 413.986C164.092 411.937 165.705 410.35 167.815 409.225C169.924 408.1 172.503 407.537 175.552 407.537C177.001 407.537 178.424 407.687 179.821 407.987C181.219 408.287 182.489 408.687 183.633 409.187L181.727 413.724C180.888 413.299 179.936 412.949 178.868 412.674C177.801 412.399 176.683 412.262 175.514 412.262C173.837 412.262 172.376 412.637 171.131 413.387C169.911 414.136 168.958 415.199 168.272 416.574C167.611 417.923 167.281 419.523 167.281 421.373C167.281 423.123 167.522 424.672 168.005 426.022C168.488 427.372 169.25 428.434 170.292 429.209C171.334 429.959 172.693 430.334 174.371 430.334C174.93 430.334 175.412 430.322 175.819 430.297C176.251 430.247 176.645 430.197 177.001 430.147C177.356 430.072 177.699 430.009 178.03 429.959V424.372H172.884V419.648Z" fill="#FFB775"/>
<path d="M223.793 434.683H216.475L204.621 414.436H204.468C204.494 415.061 204.519 415.699 204.545 416.349C204.57 416.974 204.596 417.611 204.621 418.261C204.672 418.886 204.71 419.523 204.735 420.173C204.761 420.798 204.786 421.435 204.812 422.085V434.683H199.666V407.912H206.946L218.762 427.972H218.876C218.851 427.347 218.826 426.735 218.8 426.135C218.775 425.51 218.749 424.897 218.724 424.297C218.724 423.673 218.711 423.06 218.686 422.46C218.66 421.835 218.635 421.21 218.61 420.585V407.912H223.793V434.683Z" fill="#FFB775"/>
<path d="M255.867 434.683H240.202V407.912H255.867V412.562H245.957V418.448H255.181V423.098H245.957V429.997H255.867V434.683Z" fill="#FFB775"/>
<path d="M282.571 434.683L276.015 413.687H275.862C275.888 414.186 275.926 414.936 275.976 415.936C276.027 416.936 276.078 418.011 276.129 419.161C276.18 420.286 276.205 421.31 276.205 422.235V434.683H271.059V407.912H278.911L285.353 428.384H285.467L292.29 407.912H300.142V434.683H294.768V422.01C294.768 421.16 294.781 420.186 294.806 419.086C294.857 417.986 294.895 416.949 294.92 415.974C294.971 414.974 295.009 414.224 295.035 413.724H294.882L287.869 434.683H282.571Z" fill="#FFB775"/>
<path d="M326.723 434.683H314.335V431.459L317.651 429.959V412.637L314.335 411.137V407.912H326.723V411.137L323.407 412.637V429.959L326.723 431.459V434.683Z" fill="#FFB775"/>
<path d="M357.547 434.683L355.565 428.309H345.654L343.672 434.683H337.459L347.065 407.8H354.116L363.76 434.683H357.547ZM352.21 417.323C352.083 416.899 351.918 416.361 351.715 415.711C351.512 415.061 351.308 414.399 351.105 413.724C350.902 413.049 350.736 412.462 350.609 411.962C350.482 412.462 350.304 413.087 350.076 413.836C349.873 414.561 349.669 415.261 349.466 415.936C349.288 416.586 349.148 417.049 349.047 417.323L347.103 423.548H354.192L352.21 417.323Z" fill="#FFB775"/>
<path d="M363.76 297.454C363.76 348.031 322.759 389.032 272.181 389.032C221.604 389.032 184.399 346.994 184.399 297.454C184.399 281.351 197.649 255.043 219.512 238.616C244.66 213.467 290.687 190.217 263.64 104.807C319.157 175.033 363.76 246.876 363.76 297.454Z" fill="#FF7575"/>
<path d="M201.115 230.075C145.124 278.948 167.317 335.414 188.195 360.087C161.623 345.853 130.619 303.454 137.057 261.392C144.175 214.891 152.246 209.677 196.844 171.711C250.354 126.159 230.9 82.5055 214.875 64C249.925 76.0727 260.083 120.929 252.39 157.193C246.233 186.217 230.062 204.807 201.115 230.075Z" fill="#FFB775"/>
</svg>
