<svg width="500" height="500" viewBox="0 0 500 500" fill="none" xmlns="http://www.w3.org/2000/svg">
<path d="M112.871 499.497H96.2404V495.168L100.692 493.154V469.9L96.2404 467.886V463.557H112.871V467.886L108.419 469.9V493.154L112.871 495.168V499.497Z" fill="#FFB775"/>
<path d="M145.756 479.312H160.237V497.936C158.327 498.574 156.331 499.077 154.25 499.446C152.203 499.815 149.867 500 147.24 500C143.624 500 140.537 499.295 137.978 497.886C135.454 496.477 133.526 494.396 132.196 491.644C130.9 488.893 130.252 485.504 130.252 481.477C130.252 477.718 130.985 474.463 132.452 471.712C133.953 468.96 136.119 466.829 138.95 465.319C141.782 463.809 145.244 463.054 149.338 463.054C151.282 463.054 153.193 463.255 155.069 463.658C156.945 464.061 158.651 464.598 160.186 465.269L157.627 471.359C156.502 470.789 155.222 470.319 153.79 469.95C152.357 469.581 150.856 469.396 149.287 469.396C147.035 469.396 145.074 469.9 143.402 470.906C141.765 471.913 140.486 473.339 139.564 475.185C138.678 476.997 138.234 479.145 138.234 481.628C138.234 483.977 138.558 486.057 139.206 487.869C139.854 489.681 140.878 491.107 142.276 492.148C143.675 493.154 145.5 493.658 147.752 493.658C148.502 493.658 149.15 493.641 149.696 493.607C150.276 493.54 150.805 493.473 151.282 493.406C151.76 493.305 152.22 493.222 152.664 493.154V485.655H145.756V479.312Z" fill="#FFB775"/>
<path d="M214.1 499.497H204.276L188.362 472.316H188.157C188.191 473.155 188.225 474.01 188.259 474.883C188.293 475.722 188.328 476.577 188.362 477.45C188.43 478.289 188.481 479.145 188.515 480.017C188.549 480.856 188.583 481.712 188.618 482.584V499.497H181.71V463.557H191.483L207.346 490.487H207.499C207.465 489.648 207.431 488.826 207.397 488.02C207.363 487.181 207.329 486.359 207.295 485.554C207.295 484.715 207.278 483.893 207.243 483.087C207.209 482.249 207.175 481.41 207.141 480.571V463.557H214.1V499.497Z" fill="#FFB775"/>
<path d="M257.158 499.497H236.128V463.557H257.158V469.799H243.854V477.702H256.237V483.943H243.854V493.205H257.158V499.497Z" fill="#FFB775"/>
<path d="M293.007 499.497L284.205 471.309H284.001C284.035 471.98 284.086 472.987 284.154 474.329C284.222 475.671 284.291 477.114 284.359 478.658C284.427 480.168 284.461 481.544 284.461 482.785V499.497H277.553V463.557H288.094L296.742 491.04H296.895L306.055 463.557H316.596V499.497H309.381V482.483C309.381 481.342 309.398 480.034 309.432 478.557C309.5 477.081 309.551 475.688 309.586 474.379C309.654 473.037 309.705 472.03 309.739 471.359H309.534L300.119 499.497H293.007Z" fill="#FFB775"/>
<path d="M352.28 499.497H335.649V495.168L340.101 493.154V469.9L335.649 467.886V463.557H352.28V467.886L347.828 469.9V493.154L352.28 495.168V499.497Z" fill="#FFB775"/>
<path d="M393.659 499.497L390.998 490.94H377.694L375.033 499.497H366.693L379.588 463.406H389.054L402 499.497H393.659ZM386.495 476.192C386.325 475.621 386.103 474.9 385.83 474.027C385.557 473.155 385.284 472.265 385.012 471.359C384.739 470.453 384.517 469.665 384.346 468.994C384.176 469.665 383.937 470.504 383.63 471.51C383.357 472.484 383.084 473.423 382.811 474.329C382.572 475.202 382.385 475.822 382.248 476.192L379.639 484.547H389.156L386.495 476.192Z" fill="#FFB775"/>
<path d="M402 315.27C402 383.169 346.957 438.211 279.059 438.211C211.161 438.211 161.214 381.776 161.214 315.27C161.214 293.653 179.002 258.336 208.352 236.282C242.113 202.521 303.902 171.308 267.593 56.6486C342.122 150.924 402 247.372 402 315.27Z" fill="#FF7575"/>
<path d="M183.654 224.816C108.488 290.427 138.282 366.23 166.31 399.354C130.638 380.244 89.0167 323.325 97.6595 266.858C107.214 204.432 118.05 197.433 177.921 146.465C249.757 85.3135 223.64 26.7096 202.127 1.86664C249.18 18.0738 262.818 78.2925 252.49 126.975C244.224 165.938 222.516 190.895 183.654 224.816Z" fill="#FFB775"/>
</svg>
