<svg width="306" height="499" viewBox="0 0 306 499" fill="none" xmlns="http://www.w3.org/2000/svg">
<path d="M16.8706 498.497H0.240356V494.168L4.69214 492.154V468.9L0.240356 466.886V462.557H16.8706V466.886L12.4188 468.9V492.154L16.8706 494.168V498.497Z" fill="#FFB775"/>
<path d="M49.756 478.312H64.2371V496.936C62.3267 497.574 60.3311 498.077 58.2502 498.446C56.2034 498.815 53.8667 499 51.2399 499C47.6239 499 44.5367 498.295 41.9782 496.886C39.4538 495.477 37.5264 493.396 36.196 490.644C34.8997 487.893 34.2515 484.504 34.2515 480.477C34.2515 476.718 34.985 473.463 36.4518 470.712C37.9528 467.96 40.119 465.829 42.9504 464.319C45.7818 462.809 49.2443 462.054 53.3379 462.054C55.2824 462.054 57.1927 462.255 59.0689 462.658C60.9452 463.061 62.6508 463.598 64.1859 464.269L61.6274 470.359C60.5017 469.789 59.2224 469.319 57.7897 468.95C56.3569 468.581 54.8559 468.396 53.2867 468.396C51.0353 468.396 49.0737 468.9 47.4022 469.906C45.7648 470.913 44.4855 472.339 43.5645 474.185C42.6775 475.997 42.234 478.145 42.234 480.628C42.234 482.977 42.5581 485.057 43.2063 486.869C43.8544 488.681 44.8778 490.107 46.2765 491.148C47.6751 492.154 49.5002 492.658 51.7516 492.658C52.5021 492.658 53.1503 492.641 53.6961 492.607C54.276 492.54 54.8048 492.473 55.2824 492.406C55.7599 492.305 56.2205 492.222 56.6639 492.154V484.655H49.756V478.312Z" fill="#FFB775"/>
<path d="M118.1 498.497H108.276L92.3617 471.316H92.157C92.1912 472.155 92.2253 473.01 92.2594 473.883C92.2935 474.722 92.3276 475.577 92.3617 476.45C92.43 477.289 92.4811 478.145 92.5152 479.017C92.5493 479.856 92.5835 480.712 92.6176 481.584V498.497H85.7096V462.557H95.4831L111.346 489.487H111.499C111.465 488.648 111.431 487.826 111.397 487.02C111.363 486.181 111.329 485.359 111.295 484.554C111.295 483.715 111.278 482.893 111.243 482.087C111.209 481.249 111.175 480.41 111.141 479.571V462.557H118.1V498.497Z" fill="#FFB775"/>
<path d="M161.158 498.497H140.128V462.557H161.158V468.799H147.854V476.702H160.237V482.943H147.854V492.205H161.158V498.497Z" fill="#FFB775"/>
<path d="M197.007 498.497L188.205 470.309H188.001C188.035 470.98 188.086 471.987 188.154 473.329C188.222 474.671 188.291 476.114 188.359 477.658C188.427 479.168 188.461 480.544 188.461 481.785V498.497H181.553V462.557H192.094L200.742 490.04H200.895L210.055 462.557H220.596V498.497H213.381V481.483C213.381 480.342 213.398 479.034 213.432 477.557C213.5 476.081 213.551 474.688 213.586 473.379C213.654 472.037 213.705 471.03 213.739 470.359H213.534L204.119 498.497H197.007Z" fill="#FFB775"/>
<path d="M256.28 498.497H239.649V494.168L244.101 492.154V468.9L239.649 466.886V462.557H256.28V466.886L251.828 468.9V492.154L256.28 494.168V498.497Z" fill="#FFB775"/>
<path d="M297.659 498.497L294.998 489.94H281.694L279.033 498.497H270.693L283.588 462.406H293.054L306 498.497H297.659ZM290.495 475.192C290.325 474.621 290.103 473.9 289.83 473.027C289.557 472.155 289.284 471.265 289.012 470.359C288.739 469.453 288.517 468.665 288.346 467.994C288.176 468.665 287.937 469.504 287.63 470.51C287.357 471.484 287.084 472.423 286.811 473.329C286.572 474.202 286.385 474.822 286.248 475.192L283.639 483.547H293.156L290.495 475.192Z" fill="#FFB775"/>
<path d="M306 314.27C306 382.169 250.957 437.211 183.059 437.211C115.161 437.211 65.2142 380.776 65.2142 314.27C65.2142 292.653 83.0021 257.336 112.352 235.282C146.113 201.521 207.902 170.308 171.593 55.6486C246.122 149.924 306 246.372 306 314.27Z" fill="#FF7575"/>
<path d="M87.6544 223.816C12.4885 289.427 42.2823 365.23 70.3103 398.354C34.6383 379.244 -6.98333 322.325 1.65951 265.858C11.2145 203.432 22.0497 196.433 81.9214 145.465C153.757 84.3135 127.64 25.7096 106.127 0.866638C153.18 17.0738 166.818 77.2925 156.49 125.975C148.224 164.938 126.516 189.895 87.6544 223.816Z" fill="#FFB775"/>
</svg>
